<svg width="31" height="31" viewBox="0 0 31 31" fill="none" xmlns="http://www.w3.org/2000/svg">
<path fill-rule="evenodd" clip-rule="evenodd" d="M24.5417 15.4946C24.5417 16.208 23.9634 16.7863 23.25 16.7863L7.75002 16.7863C7.03665 16.7863 6.45835 16.208 6.45835 15.4947C6.45835 14.7813 7.03665 14.203 7.75002 14.203L23.25 14.203C23.9634 14.203 24.5417 14.7813 24.5417 15.4946Z" fill="white"/>
<path fill-rule="evenodd" clip-rule="evenodd" d="M16.4134 24.1633C15.9089 24.6678 15.0911 24.6678 14.5867 24.1633L6.83667 16.4133C6.33225 15.9089 6.33225 15.0911 6.83667 14.5866L14.5867 6.83664C15.0911 6.33221 15.9089 6.33221 16.4134 6.83664C16.9178 7.34107 16.9178 8.15891 16.4134 8.66333L9.57671 15.5L16.4134 22.3366C16.9178 22.8411 16.9178 23.6589 16.4134 24.1633Z" fill="white"/>
</svg>
