<svg width="20" height="20" viewBox="0 0 20 20" fill="none" xmlns="http://www.w3.org/2000/svg">
<path d="M18.3304 0.615418H1.64944C1.07827 0.615761 0.615242 1.07902 0.615356 1.65042V18.3313C0.6157 18.9025 1.07896 19.3655 1.65036 19.3654H10.6312V12.1144H8.19592V9.27631H10.6312V7.18765C10.6312 4.7655 12.1099 3.44714 14.2706 3.44714C15.3055 3.44714 16.1948 3.52428 16.454 3.55872V6.09027H14.9641C13.7885 6.09027 13.5609 6.64886 13.5609 7.46871V9.27631H16.3716L16.0054 12.1144H13.5609V19.3654H18.3304C18.9019 19.3655 19.3652 18.9024 19.3654 18.3309C19.3654 18.3308 19.3654 18.3306 19.3654 18.3304V1.64951C19.3651 1.07833 18.9018 0.615303 18.3304 0.615418Z" fill="white"/>
</svg>
