<svg width="31" height="31" viewBox="0 0 31 31" fill="none" xmlns="http://www.w3.org/2000/svg">
<path fill-rule="evenodd" clip-rule="evenodd" d="M6.45837 15.5054C6.45837 14.792 7.03667 14.2137 7.75004 14.2137H23.25C23.9634 14.2137 24.5417 14.792 24.5417 15.5054C24.5417 16.2187 23.9634 16.797 23.25 16.797H7.75004C7.03667 16.797 6.45837 16.2187 6.45837 15.5054Z" fill="white"/>
<path fill-rule="evenodd" clip-rule="evenodd" d="M14.5867 6.83666C15.0911 6.33224 15.909 6.33224 16.4134 6.83666L24.1634 14.5867C24.6678 15.0911 24.6678 15.9089 24.1634 16.4134L16.4134 24.1634C15.909 24.6678 15.0911 24.6678 14.5867 24.1634C14.0823 23.6589 14.0823 22.8411 14.5867 22.3367L21.4233 15.5L14.5867 8.66336C14.0823 8.15893 14.0823 7.34109 14.5867 6.83666Z" fill="white"/>
</svg>
