<svg width="20" height="20" viewBox="0 0 20 20" fill="none" xmlns="http://www.w3.org/2000/svg">
<g clip-path="url(#clip0)">
<path d="M19.9803 5.88005C19.9335 4.81738 19.7616 4.0868 19.5155 3.45374C19.2615 2.78176 18.8708 2.18014 18.3589 1.68002C17.8588 1.1721 17.2532 0.777435 16.589 0.527447C15.9523 0.281274 15.2255 0.109427 14.1629 0.0625732C13.0922 0.0117516 12.7524 0 10.037 0C7.32161 0 6.98173 0.0117516 5.91509 0.0586052C4.85241 0.105459 4.12183 0.277459 3.48893 0.523479C2.8168 0.777435 2.21518 1.16814 1.71505 1.68002C1.20714 2.18014 0.812621 2.78573 0.562481 3.44992C0.316309 4.0868 0.144461 4.81341 0.0976074 5.87609C0.0467857 6.9467 0.0350342 7.28658 0.0350342 10.002C0.0350342 12.7173 0.0467857 13.0572 0.0936394 14.1239C0.140493 15.1865 0.312493 15.9171 0.558666 16.5502C0.812621 17.2221 1.20714 17.8238 1.71505 18.3239C2.21518 18.8318 2.82077 19.2265 3.48496 19.4765C4.12183 19.7226 4.84844 19.8945 5.91127 19.9413C6.97777 19.9883 7.3178 19.9999 10.0332 19.9999C12.7485 19.9999 13.0884 19.9883 14.1551 19.9413C15.2177 19.8945 15.9483 19.7226 16.5812 19.4765C17.9253 18.9568 18.988 17.8941 19.5077 16.5502C19.7537 15.9133 19.9257 15.1865 19.9726 14.1239C20.0194 13.0572 20.0312 12.7173 20.0312 10.002C20.0312 7.28658 20.0272 6.9467 19.9803 5.88005ZM18.1793 14.0457C18.1363 15.0225 17.9722 15.5499 17.8354 15.9015C17.4994 16.7728 16.8079 17.4643 15.9366 17.8004C15.5849 17.9372 15.0537 18.1012 14.0807 18.1441C13.0259 18.1911 12.7095 18.2027 10.041 18.2027C7.37244 18.2027 7.05209 18.1911 6.00101 18.1441C5.02426 18.1012 4.49681 17.9372 4.14518 17.8004C3.71159 17.6402 3.31693 17.3862 2.99658 17.0541C2.66448 16.7298 2.41053 16.3391 2.25028 15.9055C2.11353 15.5539 1.94947 15.0225 1.90659 14.0497C1.85958 12.9948 1.84798 12.6783 1.84798 10.0097C1.84798 7.34122 1.85958 7.02087 1.90659 5.96995C1.94947 4.99319 2.11353 4.46575 2.25028 4.11412C2.41053 3.68038 2.66448 3.28586 3.00055 2.96536C3.32471 2.63327 3.71541 2.37931 4.14915 2.21921C4.50078 2.08247 5.0322 1.9184 6.00498 1.87537C7.05987 1.82851 7.3764 1.81676 10.0448 1.81676C12.7173 1.81676 13.0336 1.82851 14.0847 1.87537C15.0615 1.9184 15.5889 2.08247 15.9405 2.21921C16.3741 2.37931 16.7688 2.63327 17.0891 2.96536C17.4212 3.28967 17.6752 3.68038 17.8354 4.11412C17.9722 4.46575 18.1363 4.99701 18.1793 5.96995C18.2261 7.02484 18.2379 7.34122 18.2379 10.0097C18.2379 12.6783 18.2261 12.9908 18.1793 14.0457Z" fill="white"/>
<path d="M10.0369 4.86407C7.20049 4.86407 4.89917 7.16524 4.89917 10.0018C4.89917 12.8383 7.20049 15.1395 10.0369 15.1395C12.8734 15.1395 15.1746 12.8383 15.1746 10.0018C15.1746 7.16524 12.8734 4.86407 10.0369 4.86407ZM10.0369 13.3345C8.19678 13.3345 6.70418 11.8421 6.70418 10.0018C6.70418 8.16153 8.19678 6.66908 10.0369 6.66908C11.8772 6.66908 13.3696 8.16153 13.3696 10.0018C13.3696 11.8421 11.8772 13.3345 10.0369 13.3345Z" fill="white"/>
<path d="M16.5772 4.66103C16.5772 5.32339 16.0402 5.86045 15.3776 5.86045C14.7153 5.86045 14.1782 5.32339 14.1782 4.66103C14.1782 3.99852 14.7153 3.46161 15.3776 3.46161C16.0402 3.46161 16.5772 3.99852 16.5772 4.66103Z" fill="white"/>
</g>
<defs>
<clipPath id="clip0">
<rect width="20" height="20" fill="white"/>
</clipPath>
</defs>
</svg>
