<svg width="20" height="20" viewBox="0 0 20 20" fill="none" xmlns="http://www.w3.org/2000/svg">
<path d="M2.88894 1.01538C1.51405 1.01538 0.615112 1.91821 0.615112 3.10484C0.615112 4.26527 1.48727 5.19385 2.83618 5.19385H2.86227C4.26406 5.19385 5.13644 4.26527 5.13644 3.10484C5.11024 1.91821 4.26406 1.01538 2.88894 1.01538Z" fill="white"/>
<path d="M0.852905 6.84497H4.8723V18.9375H0.852905V6.84497Z" fill="white"/>
<path d="M14.7377 6.5611C12.5694 6.5611 11.1155 8.5986 11.1155 8.5986V6.84491H7.09595V18.9374H11.1152V12.1845C11.1152 11.823 11.1414 11.462 11.2476 11.2035C11.5382 10.4816 12.1994 9.73374 13.3099 9.73374C14.7643 9.73374 15.346 10.8427 15.346 12.4683V18.9374H19.365V12.0038C19.365 8.2895 17.382 6.5611 14.7377 6.5611Z" fill="white"/>
</svg>
