<svg width="22" height="20" viewBox="0 0 22 20" fill="none" xmlns="http://www.w3.org/2000/svg">
<path fill-rule="evenodd" clip-rule="evenodd" d="M11 2.5C6.02943 2.5 2 6.52943 2 11.5C2 14.0995 3.1008 16.4404 4.86459 18.0846C5.26856 18.4612 5.29075 19.094 4.91416 19.498C4.53756 19.902 3.90478 19.9242 3.50081 19.5476C1.34822 17.5408 0 14.6771 0 11.5C0 5.42487 4.92487 0.5 11 0.5C17.0751 0.5 22 5.42487 22 11.5C22 14.6771 20.6518 17.5408 18.4992 19.5476C18.0952 19.9242 17.4624 19.902 17.0858 19.498C16.7092 19.094 16.7314 18.4612 17.1354 18.0846C18.8992 16.4404 20 14.0995 20 11.5C20 6.52943 15.9706 2.5 11 2.5ZM11 6C7.96243 6 5.5 8.46243 5.5 11.5C5.5 13.0886 6.17224 14.5187 7.25064 15.524C7.65461 15.9006 7.6768 16.5334 7.30021 16.9373C6.92361 17.3413 6.29083 17.3635 5.88686 16.9869C4.41966 15.6191 3.5 13.6662 3.5 11.5C3.5 7.35787 6.85787 4 11 4C15.1421 4 18.5 7.35787 18.5 11.5C18.5 13.6662 17.5803 15.6191 16.1131 16.9869C15.7092 17.3635 15.0764 17.3413 14.6998 16.9373C14.3232 16.5334 14.3454 15.9006 14.7494 15.524C15.8278 14.5187 16.5 13.0886 16.5 11.5C16.5 8.46243 14.0376 6 11 6ZM11 9.5C9.89543 9.5 9 10.3954 9 11.5C9 12.0777 9.24365 12.597 9.63669 12.9634C10.0407 13.34 10.0628 13.9728 9.68625 14.3767C9.30965 14.7807 8.67687 14.8029 8.27291 14.4263C7.49105 13.6974 7 12.6553 7 11.5C7 9.29086 8.79086 7.5 11 7.5C13.2091 7.5 15 9.29086 15 11.5C15 12.6553 14.5089 13.6974 13.7271 14.4263C13.3231 14.8029 12.6903 14.7807 12.3137 14.3767C11.9372 13.9728 11.9593 13.34 12.3633 12.9634C12.7564 12.597 13 12.0777 13 11.5C13 10.3954 12.1046 9.5 11 9.5Z" fill="#56667D"/>
</svg>
