<svg width="22" height="22" viewBox="0 0 22 22" fill="none" xmlns="http://www.w3.org/2000/svg">
<path d="M18.3584 14.4209C20.6156 15.098 22 16.08 22 17.5C22 19.235 19.703 20.4704 16.2922 21.0762L15.7295 21.1689C15.5388 21.1979 15.345 21.2251 15.1484 21.2504L14.55 21.3207C14.2467 21.353 13.9373 21.381 13.6225 21.4047L12.9858 21.4462L12.3357 21.476C12.2263 21.48 12.1164 21.4835 12.006 21.4865L11.338 21.4985H10.662L9.99397 21.4865C9.88358 21.4835 9.77368 21.48 9.66429 21.476L9.01423 21.4462L8.37754 21.4047C8.06272 21.381 7.75333 21.353 7.45 21.3207L6.85162 21.2504C6.7533 21.2378 6.6557 21.2246 6.55884 21.2111L5.9868 21.1239C2.4228 20.5368 0 19.2819 0 17.5C0 16.08 1.38443 15.098 3.64158 14.4209C4.17057 14.2622 4.72806 14.5624 4.88675 15.0913C5.04545 15.6203 4.74527 16.1778 4.21628 16.3365C3.40049 16.5813 2.76627 16.8629 2.36438 17.1479C2.2256 17.2464 2.1345 17.3274 2.0781 17.3873L2.0179 17.4609C2.00543 17.4798 2 17.493 2 17.5C2 17.7039 2.27641 17.9375 2.77269 18.1714L3.03889 18.2883C3.13356 18.3272 3.23407 18.3659 3.34017 18.4044L3.67494 18.519C3.79194 18.5568 3.91427 18.5942 4.04165 18.6311L4.43872 18.74C4.50734 18.7579 4.57716 18.7756 4.64815 18.7931L5.08782 18.8957C5.23887 18.929 5.39432 18.9615 5.55392 18.993L6.04488 19.0843L6.55914 19.1687C6.64671 19.1821 6.73518 19.1953 6.82452 19.2081L7.37077 19.2806L7.93639 19.3442L8.5198 19.3981C8.71707 19.4144 8.91703 19.4289 9.11944 19.4415L9.73374 19.4734L10.3611 19.4932C10.4667 19.4955 10.5727 19.4972 10.6792 19.4983L11 19.5C11.2147 19.5 11.4278 19.4977 11.6389 19.4932L12.2663 19.4734L12.8806 19.4415C13.083 19.4289 13.2829 19.4144 13.4802 19.3981L14.0636 19.3442L14.6292 19.2806L15.1755 19.2081L15.7008 19.1274C15.7865 19.1133 15.8713 19.099 15.9551 19.0843L16.4461 18.993L16.6823 18.945L17.1354 18.845C17.282 18.8107 17.424 18.7757 17.5613 18.74L17.9583 18.6311C18.022 18.6127 18.0845 18.5941 18.1456 18.5754L18.4965 18.4619C18.664 18.4046 18.8191 18.3466 18.9611 18.2883L19.2273 18.1714C19.7236 17.9375 20 17.7039 20 17.5C20 17.493 19.9946 17.4798 19.9821 17.4609L19.9219 17.3873C19.8655 17.3274 19.7744 17.2464 19.6356 17.148C19.2337 16.8629 18.5995 16.5813 17.7837 16.3365C17.2547 16.1778 16.9545 15.6203 17.1132 15.0914C17.2719 14.5624 17.8294 14.2622 18.3584 14.4209ZM11 0C15.1367 0 18.5 3.28101 18.5 7.3409C18.5 9.80521 17.1628 12.1946 14.9679 14.4582C14.2223 15.2273 13.4265 15.9277 12.6304 16.5482L12.2902 16.8087L11.8622 17.1215L11.5471 17.3371C11.2147 17.5543 10.7853 17.5543 10.4529 17.3371C10.4248 17.3187 10.3942 17.2984 10.3614 17.2763L10.0069 17.0279L9.70983 16.8087L9.36961 16.5482C8.57354 15.9277 7.77774 15.2273 7.03208 14.4582C4.83722 12.1946 3.5 9.80521 3.5 7.3409C3.5 3.28101 6.86334 0 11 0ZM11 2C7.95696 2 5.5 4.39683 5.5 7.3409C5.5 9.1738 6.60028 11.1399 8.46792 13.066C9.14413 13.7634 9.87177 14.4038 10.5991 14.9708C10.7262 15.0698 10.8485 15.1629 10.9653 15.2497L11 15.274L11.1234 15.1834L11.4009 14.9708C12.1282 14.4038 12.8559 13.7634 13.5321 13.066C15.3997 11.1399 16.5 9.1738 16.5 7.3409C16.5 4.39683 14.043 2 11 2ZM11 4C12.933 4 14.5 5.56702 14.5 7.5C14.5 9.43298 12.933 11 11 11C9.06702 11 7.5 9.43298 7.5 7.5C7.5 5.56702 9.06702 4 11 4ZM11 6C10.1716 6 9.5 6.67158 9.5 7.5C9.5 8.32841 10.1716 9 11 9C11.8284 9 12.5 8.32841 12.5 7.5C12.5 6.67158 11.8284 6 11 6Z" fill="#56667D"/>
</svg>
