<svg width="20" height="20" viewBox="0 0 20 20" fill="none" xmlns="http://www.w3.org/2000/svg">
<path d="M6.51552 17.5083C13.5914 17.5083 17.4608 11.6461 17.4608 6.56295C17.4608 6.39646 17.4574 6.23065 17.4499 6.06576C18.201 5.52271 18.8538 4.84504 19.3689 4.07369C18.6796 4.38019 17.9377 4.58625 17.1597 4.67947C17.9539 4.20304 18.5637 3.44969 18.8513 2.55164C18.108 2.99229 17.2848 3.31244 16.4086 3.48535C15.7066 2.73762 14.707 2.27002 13.6004 2.27002C11.4761 2.27002 9.7533 3.99274 9.7533 6.11633C9.7533 6.41836 9.78713 6.7119 9.85306 6.99352C6.65587 6.83264 3.82067 5.30198 1.92354 2.97429C1.59331 3.54268 1.40274 4.20315 1.40274 4.90788C1.40274 6.24235 2.0819 7.42076 3.11457 8.10989C2.48345 8.09051 1.89063 7.91725 1.37235 7.62887C1.37178 7.64504 1.37178 7.66075 1.37178 7.67795C1.37178 9.54102 2.69776 11.0966 4.45821 11.449C4.13485 11.537 3.79464 11.5843 3.44377 11.5843C3.19632 11.5843 2.95507 11.56 2.72069 11.515C3.21042 13.0435 4.63066 14.1557 6.3144 14.1869C4.9977 15.2189 3.33908 15.8336 1.53644 15.8336C1.22638 15.8336 0.919884 15.8158 0.618774 15.7803C2.32132 16.8715 4.34297 17.5084 6.51563 17.5084" fill="white"/>
</svg>
